:SAMPLES-PER-SECOND 30
:FULLY-SPECIFIED
:DEGREES
609
root  -23.834 38.6924 -5.03385 -21.9154 -81.7555 14.2098
RightUpLeg  -14.7212 -5.27401 -3.9038
RightLeg  2.37549 11.8566 -1.07551
RightFoot  3.89307 -0.988147 7.67008
RightToes  5.82063e-011 0 -3.6325e-017
Spine  3.19869 -1.02455 -3.96658
Spine1  14.9247 -2.40772 3.63817
HEad  1.05181 7.58215 -6.24835
LeftShoulder1  0.107572 3.20923 -30.3865
LeftArm  -8.0371 7.7025 -36.1917
LeftForeArm  41.5136 -76.2045 -48.6367
LeftHand  0.115293 1.52583 -3.77757
RightShoulder  -0.523739 -5.00069 28.1686
RightArm  -9.91454 -19.7594 34.3067
RightForeArm  114.378 74.9425 133.86
RightHand  -0.175984 -1.55891 -5.14688
LeftUpLeg  14.659 4.91322 -5.53452
LeftLeg  17.5581 -8.02519 -2.39035
LeftFoot  -17.417 0.63795 10.0361
LeftToes  2.58842e-009 -1.78069e-010 3.24654e-012
610
root  -25.1724 38.5391 -4.96442 -19.3238 -82.0533 10.9055
RightUpLeg  -15.801 -1.66295 -3.23823
RightLeg  9.02311 10.0591 -0.596914
RightFoot  9.11896 -0.770743 4.49987
RightToes  5.82063e-011 0 -3.6325e-017
Spine  4.68404 -0.920637 -1.06164
Spine1  13.654 -1.75741 2.29674
HEad  1.14278 7.09243 -6.27606
LeftShoulder1  0.122973 3.16617 -30.3046
LeftArm  -8.25226 9.22211 -36.1728
LeftForeArm  43.1423 -76.4825 -49.9328
LeftHand  0.116592 1.50033 -3.78794
RightShoulder  -0.540435 -5.0473 28.2107
RightArm  -8.78834 -18.9838 33.7029
RightForeArm  112.124 75.3739 131.904
RightHand  -0.18402 -1.94132 -5.92908
LeftUpLeg  16.4749 3.75608 -5.03672
LeftLeg  19.8284 -7.20275 -2.52171
LeftFoot  -18.0994 0.580603 7.99321
LeftToes  2.58842e-009 -1.78069e-010 3.24654e-012
611
root  -26.5436 38.3961 -4.75534 -11.4966 -81.895 1.99463
RightUpLeg  -16.4668 3.26216 -3.5929
RightLeg  16.8865 5.17053 1.29193
RightFoot  6.51259 -0.345324 2.50183
RightToes  5.82063e-011 0 -3.6325e-017
Spine  5.85733 -1.64967 3.34891
Spine1  13.3536 -1.63193 -0.0671334
HEad  0.833361 7.40777 -7.21204
LeftShoulder1  0.0867414 3.26763 -30.5631
LeftArm  -8.79475 10.5976 -36.0118
LeftForeArm  42.6978 -76.4397 -49.8176
LeftHand  0.117002 1.55721 -3.8741
RightShoulder  -0.501336 -4.9442 27.9444
RightArm  -7.58942 -17.5221 33.809
RightForeArm  109.547 76.0347 128.821
RightHand  -0.172986 -2.05245 -5.73193
LeftUpLeg  17.3659 2.48453 -3.99418
LeftLeg  24.6693 -6.94546 -3.15358
LeftFoot  -17.718 0.399476 5.299
LeftToes  2.58842e-009 -1.78069e-010 3.24654e-012
612
root  -27.9893 38.3222 -4.579 0.850906 -81.233 -9.75842
RightUpLeg  -16.8733 2.90751 -1.92155
RightLeg  21.0519 4.49525 1.71735
RightFoot  3.20621 -0.208402 1.77524
RightToes  5.82063e-011 0 -3.6325e-017
Spine  3.45265 -2.2522 7.54415
Spine1  14.9766 -1.73528 -0.982606
HEad  1.70158 7.83982 -7.91307
LeftShoulder1  0.108807 3.21217 -31.2055
LeftArm  -9.09167 11.7229 -35.7265
LeftForeArm  40.563 -76.0391 -47.907
LeftHand  0.118401 1.13005 -3.43701
RightShoulder  -0.43748 -4.77879 27.3947
RightArm  -6.71124 -16.9091 33.6607
RightForeArm  107.868 76.3962 126.894
RightHand  -0.180909 -1.5105 -5.23346
LeftUpLeg  14.6255 2.50239 -1.19951
LeftLeg  32.612 -8.40709 -5.48382
LeftFoot  -14.7073 0.104618 -0.00939832
LeftToes  2.58842e-009 -1.78069e-010 3.24654e-012
613
root  -29.2643 38.2958 -4.70771 5.99947 -78.6846 -13.2717
RightUpLeg  -18.0958 3.39967 -0.663662
RightLeg  24.589 1.73136 0.642676
RightFoot  -0.19065 -0.0380467 0.401578
RightToes  5.82063e-011 0 -3.6325e-017
Spine  1.81956 -2.58198 7.43537
Spine1  14.76 -2.66782 1.87951
HEad  3.12969 6.81108 -7.56754
LeftShoulder1  0.038053 3.40206 -31.2772
LeftArm  -8.32071 12.0207 -35.3756
LeftForeArm  39.1155 -75.7345 -46.5454
LeftHand  0.125721 0.995946 -3.50307
RightShoulder  -0.47604 -4.89257 27.4041
RightArm  -5.89962 -17.2811 32.8263
RightForeArm  107.861 76.3942 126.895
RightHand  -0.160685 -1.29869 -4.40213
LeftUpLeg  7.50435 1.70446 1.49359
LeftLeg  43.932 -8.9726 -8.69596
LeftFoot  -5.55094 0.284388 -4.59914
LeftToes  2.58842e-009 -1.78069e-010 3.24654e-012
614
root  -30.4221 38.2628 -4.64321 9.37556 -75.5447 -16.3291
RightUpLeg  -17.3349 2.63014 0.720698
RightLeg  26.8786 -0.234999 -0.366273
RightFoot  -3.5819 -0.025478 0.0223245
RightToes  5.82063e-011 0 -3.6325e-017
Spine  2.33366 -3.37338 9.84138
Spine1  13.6205 -3.15463 2.07934
HEad  3.74014 5.8662 -7.09202
LeftShoulder1  -0.0698524 3.68983 -31.1704
LeftArm  -7.41368 11.0736 -35.5124
LeftForeArm  38.8586 -75.6725 -46.2733
LeftHand  0.103332 1.50366 -3.38313
RightShoulder  -0.519241 -5.01003 27.6559
RightArm  -6.18171 -18.7442 32.1624
RightForeArm  108.9 76.017 128.744
RightHand  -0.18336 -1.34086 -5.10232
LeftUpLeg  -0.0171994 -0.767987 3.00141
LeftLeg  54.8943 -6.27185 -8.91851
LeftFoot  8.14044 1.20951 -7.4303
LeftToes  2.58842e-009 -1.78069e-010 3.24654e-012
615
root  -31.5085 38.206 -4.56089 10.5958 -73.5989 -17.4236
RightUpLeg  -16.5342 1.72559 1.72763
RightLeg  29.0692 -1.073 -0.896038
RightFoot  -6.72411 -0.034733 -0.252879
RightToes  5.82063e-011 0 -3.6325e-017
Spine  3.18307 -3.72469 11.6468
Spine1  12.9292 -3.16613 2.16555
HEad  2.50525 3.92148 -6.30618
LeftShoulder1  0.0970214 3.24093 -30.7182
LeftArm  -7.41614 10.5459 -36.129
LeftForeArm  40.13 -75.8387 -46.7957
LeftHand  0.12035 1.10177 -3.46721
RightShoulder  -0.520912 -5.00559 27.8645
RightArm  -6.7028 -19.6242 31.5787
RightForeArm  110.645 75.7332 130.264
RightHand  -0.157891 -1.44079 -4.48056
LeftUpLeg  -6.79972 -1.83587 3.6902
LeftLeg  63.0405 -3.76852 -7.56148
LeftFoot  16.5832 1.81458 -7.69985
LeftToes  2.58842e-009 -1.78069e-010 3.24654e-012
616
root  -32.7303 38.399 -4.5159 7.30304 -72.889 -13.5849
RightUpLeg  -14.9368 1.81123 1.24432
RightLeg  29.5149 -1.82069 -1.36976
RightFoot  -9.18706 -0.051302 -0.640819
RightToes  5.82063e-011 0 -3.6325e-017
Spine  2.81973 -3.33289 10.7449
Spine1  13.0266 -2.95693 2.75221
HEad  2.17671 2.33076 -5.65016
LeftShoulder1  0.0577309 3.34828 -31.0057
LeftArm  -6.49751 8.74076 -36.1168
LeftForeArm  38.7294 -75.5226 -45.4824
LeftHand  0.092765 1.22995 -2.81671
RightShoulder  -0.5335 -5.04519 27.7975
RightArm  -7.0244 -19.7295 31.526
RightForeArm  109.874 75.8918 129.467
RightHand  -0.170187 -0.923855 -4.33163
LeftUpLeg  -12.9066 -1.65241 2.83771
LeftLeg  67.9346 -3.78571 -9.49493
LeftFoot  11.7068 1.21873 -6.33938
LeftToes  2.58842e-009 -1.78069e-010 3.24654e-012
617
root  -33.9686 38.5755 -4.37354 4.56157 -72.6527 -10.2844
RightUpLeg  -13.1497 1.01301 0.60604
RightLeg  29.5572 -1.44149 -1.14213
RightFoot  -11.426 -0.0779568 -1.44639
RightToes  5.82063e-011 0 -3.6325e-017
Spine  2.20609 -2.93168 10.4496
Spine1  13.0725 -2.5852 2.59736
HEad  2.49323 1.37053 -5.46015
LeftShoulder1  0.0495098 3.37171 -31.3471
LeftArm  -6.37916 7.09145 -36.4398
LeftForeArm  35.8221 -74.6538 -41.9941
LeftHand  0.0994625 1.12379 -2.92542
RightShoulder  -0.486917 -4.92674 27.3679
RightArm  -7.29418 -19.6083 32.1026
RightForeArm  107.966 76.2107 127.722
RightHand  -0.18708 -0.933169 -4.79028
LeftUpLeg  -18.2476 -1.44916 1.4748
LeftLeg  68.8989 -4.01422 -10.6509
LeftFoot  8.90986 0.999375 -5.90886
LeftToes  2.58842e-009 -1.78069e-010 3.24654e-012
618
root  -35.2751 38.7295 -4.22189 2.47321 -72.8835 -7.63678
RightUpLeg  -11.1674 0.109681 0.0931148
RightLeg  29.1944 -0.671279 -0.666535
RightFoot  -13.5621 -0.12861 -1.93247
RightToes  5.82063e-011 0 -3.6325e-017
Spine  1.4152 -2.44891 10.3737
Spine1  13.1635 -1.99316 1.65754
HEad  3.14149 0.667111 -4.89967
LeftShoulder1  0.0554156 3.3543 -30.9593
LeftArm  -6.56976 6.24634 -36.7586
LeftForeArm  34.4188 -74.1919 -40.3989
LeftHand  0.103832 1.48678 -3.37302
RightShoulder  -0.49755 -4.9487 27.5915
RightArm  -7.29912 -19.2044 32.5293
RightForeArm  106.856 76.4361 126.474
RightHand  -0.20103 -0.942299 -5.16477
LeftUpLeg  -22.6767 -0.580984 0.291116
LeftLeg  66.6552 -4.21138 -9.96434
LeftFoot  6.38443 0.782452 -5.24141
LeftToes  2.58842e-009 -1.78069e-010 3.24654e-012
619
root  -36.5782 38.8629 -4.0406 0.0222473 -73.5581 -4.49884
RightUpLeg  -9.24204 -1.33038 -0.836973
RightLeg  28.6027 1.0257 0.321305
RightFoot  -15.4868 -0.195978 -2.48542
RightToes  5.82063e-011 0 -3.6325e-017
Spine  1.24788 -1.91591 10.0036
Spine1  12.2444 -1.39774 0.727241
HEad  3.65037 0.85969 -4.88642
LeftShoulder1  0.0629487 3.33272 -30.6788
LeftArm  -6.34503 5.96561 -36.4315
LeftForeArm  34.2352 -74.0813 -40.0052
LeftHand  0.121704 1.03087 -3.43221
RightShoulder  -0.488509 -4.92359 27.5483
RightArm  -6.96749 -18.7183 32.7583
RightForeArm  105.725 76.6114 125.387
RightHand  -0.223265 -0.659822 -5.4333
LeftUpLeg  -26.3677 0.727252 -0.943776
LeftLeg  61.4833 -4.37741 -8.15798
LeftFoot  3.79227 0.419569 -3.33162
LeftToes  2.58842e-009 -1.78069e-010 3.24654e-012
620
root  -37.8653 38.93 -3.8268 -2.96175 -73.8378 -1.58618
RightUpLeg  -6.49806 -3.59999 -1.94719
RightLeg  28.0899 3.21378 1.48461
RightFoot  -17.2928 -0.283311 -3.23259
RightToes  5.82063e-011 0 -3.6325e-017
Spine  1.69196 -1.744 8.94621
Spine1  11.911 -1.42713 0.888517
HEad  3.3341 0.756262 -4.8578
LeftShoulder1  0.0441858 3.38501 -31.0604
LeftArm  -6.24627 4.92911 -35.6852
LeftForeArm  33.0632 -73.8334 -39.3459
LeftHand  0.103317 1.64239 -3.53624
RightShoulder  -0.418962 -4.74119 26.896
RightArm  -6.60799 -17.5712 33.4565
RightForeArm  102.952 77.0112 122.71
RightHand  -0.243977 -0.414778 -5.70087
LeftUpLeg  -28.2991 1.47748 -1.8983
LeftLeg  53.8443 -4.18679 -5.68382
LeftFoot  2.02214 0.217951 -1.98579
LeftToes  2.58842e-009 -1.78069e-010 3.24654e-012
621
root  -39.1466 38.9537 -3.58467 -5.164 -74.586 0.806458
RightUpLeg  -3.98845 -4.82659 -2.9204
RightLeg  27.3205 5.03078 2.36487
RightFoot  -18.8095 -0.339235 -3.23949
RightToes  5.82063e-011 0 -3.6325e-017
Spine  2.38155 -1.55892 8.26471
Spine1  10.7864 -1.32616 0.437366
HEad  3.53888 0.715989 -4.56337
LeftShoulder1  0.04634 3.37926 -31.1354
LeftArm  -6.45769 4.90101 -35.1741
LeftForeArm  32.6966 -73.6902 -38.8989
LeftHand  0.127788 1.38392 -3.98787
RightShoulder  -0.349934 -4.54311 26.58
RightArm  -6.06886 -16.5853 34.011
RightForeArm  100.367 77.4252 119.696
RightHand  -0.227778 0.0173646 -4.91596
LeftUpLeg  -29.0597 2.32171 -2.31282
LeftLeg  43.6373 -3.84 -3.53024
LeftFoot  1.23094 0.259414 -2.41478
LeftToes  2.58842e-009 -1.78069e-010 3.24654e-012
